<svg xmlns="http://www.w3.org/2000/svg" viewBox="0 0 1180 540" font-family="-apple-system,Segoe UI,Helvetica,Arial,sans-serif">
<rect width="1180" height="540" fill="white"/>
<text x="74" y="30" font-size="19" font-weight="600" fill="#3a3835">60-day corpus: cumulative storage over 60 daily commits, 2.68 GB logical (jul19 stack)</text>
<line x1="74" y1="482.0" x2="950" y2="482.0" stroke="#e3e1dd" stroke-width="1"/>
<text x="66" y="486.0" font-size="13" text-anchor="end" fill="#8a8880">0</text>
<line x1="74" y1="323.0" x2="950" y2="323.0" stroke="#e3e1dd" stroke-width="1"/>
<text x="66" y="327.0" font-size="13" text-anchor="end" fill="#8a8880">100</text>
<line x1="74" y1="164.1" x2="950" y2="164.1" stroke="#e3e1dd" stroke-width="1"/>
<text x="66" y="168.1" font-size="13" text-anchor="end" fill="#8a8880">200</text>
<text x="207.6" y="504" font-size="13" text-anchor="middle" fill="#8a8880">10</text>
<text x="356.1" y="504" font-size="13" text-anchor="middle" fill="#8a8880">20</text>
<text x="504.6" y="504" font-size="13" text-anchor="middle" fill="#8a8880">30</text>
<text x="653.1" y="504" font-size="13" text-anchor="middle" fill="#8a8880">40</text>
<text x="801.5" y="504" font-size="13" text-anchor="middle" fill="#8a8880">50</text>
<text x="950.0" y="504" font-size="13" text-anchor="middle" fill="#8a8880">60</text>
<text x="512" y="526" font-size="14" text-anchor="middle" fill="#3a3835">day</text>
<text x="20" y="268" font-size="14" text-anchor="middle" fill="#3a3835" transform="rotate(-90 20 268)">cumulative stored MB</text>
<polyline points="74.0,480.1 88.8,477.5 103.7,475.0 118.5,472.3 133.4,469.3 148.2,466.3 163.1,462.9 177.9,459.4 192.8,455.6 207.6,451.8 222.5,447.7 237.3,443.5 252.2,439.2 267.0,434.9 281.9,430.3 296.7,425.6 311.6,420.8 326.4,415.7 341.3,410.6 356.1,405.4 370.9,400.1 385.8,394.6 400.6,388.8 415.5,383.1 430.3,377.2 445.2,371.2 460.0,365.0 474.9,358.6 489.7,352.3 504.6,345.6 519.4,338.9 534.3,332.1 549.1,325.1 564.0,317.8 578.8,310.5 593.7,303.0 608.5,295.4 623.4,287.6 638.2,279.6 653.1,271.7 667.9,263.4 682.7,255.2 697.6,246.6 712.4,238.0 727.3,229.1 742.1,220.2 757.0,211.1 771.8,201.7 786.7,192.4 801.5,182.7 816.4,173.0 831.2,163.0 846.1,152.9 860.9,142.6 875.8,132.3 890.6,121.8 905.5,111.1 920.3,100.3 935.2,89.4 950.0,78.2" fill="none" stroke="#008300" stroke-width="2.5"/>
<text x="960" y="83.2" font-size="14" font-weight="600" fill="#008300">zstd-19 / snapshot · 254</text>
<polyline points="74.0,479.4 88.8,478.4 103.7,476.9 118.5,476.3 133.4,475.0 148.2,473.7 163.1,472.3 177.9,470.8 192.8,469.1 207.6,467.1 222.5,466.1 237.3,465.1 252.2,464.2 267.0,463.0 281.9,462.0 296.7,460.9 311.6,459.8 326.4,458.5 341.3,457.2 356.1,454.3 370.9,453.3 385.8,452.1 400.6,450.8 415.5,449.5 430.3,448.5 445.2,447.0 460.0,445.8 474.9,444.4 489.7,443.3 504.6,436.1 519.4,433.6 534.3,431.1 549.1,429.2 564.0,427.3 578.8,425.8 593.7,423.9 608.5,421.6 623.4,419.8 638.2,418.1 653.1,416.3 667.9,414.3 682.7,413.0 697.6,411.2 712.4,409.5 727.3,407.9 742.1,405.9 757.0,404.0 771.8,402.3 786.7,400.4 801.5,398.7 816.4,396.8 831.2,394.9 846.1,393.0 860.9,391.1 875.8,389.5 890.6,387.4 905.5,385.3 920.3,383.3 935.2,381.3 950.0,379.5" fill="none" stroke="#d55181" stroke-width="2.5"/>
<text x="960" y="384.5" font-size="14" font-weight="600" fill="#d55181">generic mark · 64.5</text>
<polyline points="74.0,477.7 88.8,476.9 103.7,476.4 118.5,475.8 133.4,475.2 148.2,474.6 163.1,473.5 177.9,472.9 192.8,472.2 207.6,471.6 222.5,471.2 237.3,470.7 252.2,470.3 267.0,469.8 281.9,469.3 296.7,468.7 311.6,468.2 326.4,467.2 341.3,466.8 356.1,466.4 370.9,465.9 385.8,465.4 400.6,465.0 415.5,464.4 430.3,464.0 445.2,463.4 460.0,463.0 474.9,462.5 489.7,462.0 504.6,460.7 519.4,460.3 534.3,459.8 549.1,459.3 564.0,458.7 578.8,458.2 593.7,457.7 608.5,457.0 623.4,456.5 638.2,455.9 653.1,455.4 667.9,454.7 682.7,454.2 697.6,453.5 712.4,452.8 727.3,452.2 742.1,451.5 757.0,450.8 771.8,450.1 786.7,449.3 801.5,448.6 816.4,447.0 831.2,446.4 846.1,445.9 860.9,445.3 875.8,444.7 890.6,444.1 905.5,443.5 920.3,442.9 935.2,442.2 950.0,441.6" fill="none" stroke="#1668c7" stroke-width="2.5"/>
<text x="960" y="446.6" font-size="14" font-weight="600" fill="#1668c7">structural (default) · 25.4</text>
</svg>