<svg xmlns="http://www.w3.org/2000/svg" viewBox="0 0 1180 540" font-family="-apple-system,Segoe UI,Helvetica,Arial,sans-serif">
<rect width="1180" height="540" fill="white"/>
<text x="74" y="30" font-size="19" font-weight="600" fill="#3a3835">RL-scale corpus: cumulative storage over 80 training iterations, 6.75 GB logical (jul19 stack)</text>
<line x1="74" y1="482.0" x2="950" y2="482.0" stroke="#e3e1dd" stroke-width="1"/>
<text x="66" y="486.0" font-size="13" text-anchor="end" fill="#8a8880">0</text>
<line x1="74" y1="382.0" x2="950" y2="382.0" stroke="#e3e1dd" stroke-width="1"/>
<text x="66" y="386.0" font-size="13" text-anchor="end" fill="#8a8880">250</text>
<line x1="74" y1="282.0" x2="950" y2="282.0" stroke="#e3e1dd" stroke-width="1"/>
<text x="66" y="286.0" font-size="13" text-anchor="end" fill="#8a8880">500</text>
<line x1="74" y1="182.0" x2="950" y2="182.0" stroke="#e3e1dd" stroke-width="1"/>
<text x="66" y="186.0" font-size="13" text-anchor="end" fill="#8a8880">750</text>
<line x1="74" y1="81.9" x2="950" y2="81.9" stroke="#e3e1dd" stroke-width="1"/>
<text x="66" y="85.9" font-size="13" text-anchor="end" fill="#8a8880">1k</text>
<text x="173.8" y="504" font-size="13" text-anchor="middle" fill="#8a8880">10</text>
<text x="284.7" y="504" font-size="13" text-anchor="middle" fill="#8a8880">20</text>
<text x="395.6" y="504" font-size="13" text-anchor="middle" fill="#8a8880">30</text>
<text x="506.5" y="504" font-size="13" text-anchor="middle" fill="#8a8880">40</text>
<text x="617.3" y="504" font-size="13" text-anchor="middle" fill="#8a8880">50</text>
<text x="728.2" y="504" font-size="13" text-anchor="middle" fill="#8a8880">60</text>
<text x="839.1" y="504" font-size="13" text-anchor="middle" fill="#8a8880">70</text>
<text x="950.0" y="504" font-size="13" text-anchor="middle" fill="#8a8880">80</text>
<text x="512" y="526" font-size="14" text-anchor="middle" fill="#3a3835">training iteration</text>
<text x="20" y="268" font-size="14" text-anchor="middle" fill="#3a3835" transform="rotate(-90 20 268)">cumulative stored MB</text>
<polyline points="74.0,479.7 85.1,477.4 96.2,475.0 107.3,472.5 118.4,470.0 129.4,467.3 140.5,464.6 151.6,461.8 162.7,459.0 173.8,456.0 184.9,453.0 196.0,449.9 207.1,446.8 218.2,443.5 229.2,440.2 240.3,436.8 251.4,433.3 262.5,429.8 273.6,426.1 284.7,422.4 295.8,418.6 306.9,414.7 317.9,410.8 329.0,406.7 340.1,402.6 351.2,398.4 362.3,394.1 373.4,389.9 384.5,385.5 395.6,381.1 406.7,376.7 417.7,372.3 428.8,367.7 439.9,363.1 451.0,358.4 462.1,353.7 473.2,348.8 484.3,343.9 495.4,338.9 506.5,333.9 517.5,328.8 528.6,323.6 539.7,318.3 550.8,312.9 561.9,307.6 573.0,302.2 584.1,296.7 595.2,291.1 606.3,285.5 617.3,279.7 628.4,273.9 639.5,268.0 650.6,262.0 661.7,256.0 672.8,249.8 683.9,243.6 695.0,237.3 706.1,231.0 717.1,224.6 728.2,218.3 739.3,211.9 750.4,205.5 761.5,199.0 772.6,192.4 783.7,185.7 794.8,179.0 805.8,172.2 816.9,165.3 828.0,158.4 839.1,151.4 850.2,144.2 861.3,137.1 872.4,129.8 883.5,122.5 894.6,115.3 905.6,108.0 916.7,100.7 927.8,93.3 938.9,85.7 950.0,78.2" fill="none" stroke="#008300" stroke-width="2.5"/>
<text x="960" y="83.2" font-size="14" font-weight="600" fill="#008300">zstd-19 / snapshot · 1009</text>
<polyline points="74.0,478.6 85.1,478.6 96.2,478.5 107.3,478.4 118.4,478.2 129.4,478.1 140.5,478.0 151.6,477.9 162.7,477.8 173.8,477.6 184.9,477.4 196.0,477.2 207.1,477.1 218.2,476.8 229.2,476.7 240.3,476.5 251.4,476.3 262.5,476.1 273.6,475.9 284.7,475.7 295.8,475.5 306.9,475.3 317.9,475.1 329.0,474.9 340.1,474.5 351.2,474.3 362.3,474.2 373.4,474.1 384.5,473.9 395.6,473.8 406.7,473.6 417.7,473.5 428.8,473.3 439.9,473.2 451.0,473.0 462.1,472.8 473.2,472.6 484.3,472.4 495.4,472.2 506.5,472.0 517.5,471.9 528.6,471.7 539.7,471.5 550.8,471.3 561.9,471.0 573.0,470.8 584.1,470.6 595.2,470.4 606.3,470.2 617.3,469.9 628.4,469.7 639.5,469.5 650.6,469.3 661.7,469.1 672.8,468.9 683.9,468.7 695.0,468.4 706.1,468.3 717.1,467.8 728.2,467.6 739.3,467.4 750.4,467.2 761.5,467.0 772.6,466.9 783.7,466.7 794.8,466.5 805.8,466.3 816.9,466.1 828.0,465.9 839.1,465.7 850.2,465.5 861.3,465.3 872.4,465.1 883.5,464.9 894.6,464.7 905.6,464.5 916.7,464.2 927.8,464.1 938.9,463.8 950.0,463.6" fill="none" stroke="#1668c7" stroke-width="2.5"/>
<text x="960" y="468.6" font-size="14" font-weight="600" fill="#1668c7">structural (default) · 45.9</text>
<polyline points="74.0,479.3 85.1,479.2 96.2,479.2 107.3,479.1 118.4,478.9 129.4,478.9 140.5,478.8 151.6,478.7 162.7,478.6 173.8,478.5 184.9,478.4 196.0,478.3 207.1,478.2 218.2,478.1 229.2,478.0 240.3,477.9 251.4,477.8 262.5,477.7 273.6,477.6 284.7,477.5 295.8,477.4 306.9,477.3 317.9,477.2 329.0,477.1 340.1,477.0 351.2,476.9 362.3,476.8 373.4,476.7 384.5,476.6 395.6,476.2 406.7,476.2 417.7,476.1 428.8,476.0 439.9,475.9 451.0,475.8 462.1,475.7 473.2,475.6 484.3,475.5 495.4,475.4 506.5,475.3 517.5,475.2 528.6,475.1 539.7,475.0 550.8,474.9 561.9,474.2 573.0,474.1 584.1,474.0 595.2,473.9 606.3,473.8 617.3,473.7 628.4,473.6 639.5,473.5 650.6,473.4 661.7,473.3 672.8,473.1 683.9,473.0 695.0,472.9 706.1,472.8 717.1,472.7 728.2,471.8 739.3,471.7 750.4,471.7 761.5,471.5 772.6,471.5 783.7,471.3 794.8,471.2 805.8,471.1 816.9,471.0 828.0,470.9 839.1,470.8 850.2,470.8 861.3,470.7 872.4,470.5 883.5,470.4 894.6,469.4 905.6,469.3 916.7,469.2 927.8,469.1 938.9,469.0 950.0,468.9" fill="none" stroke="#d55181" stroke-width="2.5"/>
<text x="960" y="488.6" font-size="14" font-weight="600" fill="#d55181">generic mark · 32.8</text>
</svg>